<svg width="80" height="80" viewBox="0 0 80 80" fill="none" xmlns="http://www.w3.org/2000/svg">
<path fill-rule="evenodd" clip-rule="evenodd" d="M10.5 61.875C9.3125 61.1875 8.39063 60.2813 7.73438 59.1562C7.07813 58.0312 6.75 56.7813 6.75 55.4063V25.5938C6.75 24.2188 7.07813 22.9688 7.73438 21.8438C8.39063 20.7187 9.3125 19.8125 10.5 19.125L36.75 4.03125C37.9375 3.34375 39.1875 3 40.5 3C41.8125 3 43.0625 3.34375 44.25 4.03125L70.5 19.125C71.6875 19.8125 72.6094 20.7187 73.2656 21.8438C73.9219 22.9688 74.25 24.2188 74.25 25.5938V55.4063C74.25 56.7813 73.9219 58.0312 73.2656 59.1562C72.6094 60.2813 71.6875 61.1875 70.5 61.875L44.25 76.9688C43.0625 77.6563 41.8125 78 40.5 78C39.1875 78 37.9375 77.6563 36.75 76.9688L10.5 61.875ZM13.5 55.4977V25.4074L40.5 10.125L67.5 25.3125V55.4977L40.5 70.875L13.5 55.4977ZM34.6091 46.3909C38.5364 50.3182 40.5 55.1045 40.5 60.75C40.5 55.1045 42.4636 50.3182 46.3909 46.3909C50.3182 42.4636 55.1046 40.5 60.75 40.5C55.1046 40.5 50.3182 38.5364 46.3909 34.6091C42.4636 30.6818 40.5 25.8955 40.5 20.25C40.5 25.8955 38.5364 30.6818 34.6091 34.6091C30.6818 38.5364 25.8955 40.5 20.25 40.5C25.8955 40.5 30.6818 42.4636 34.6091 46.3909Z" fill="#4285F4"/>
</svg>
